<svg width="513" height="513" viewBox="0 0 513 513" fill="none" xmlns="http://www.w3.org/2000/svg">
<g clip-path="url(#clip0)">
<path d="M500.459 375.368C435.938 364.735 406.541 299.481 403.401 292.074C403.341 291.929 403.094 291.408 403.026 291.255C399.792 284.684 398.99 279.351 400.679 275.417C404.067 267.404 418.42 262.864 427.61 259.955C430.196 259.119 432.619 258.351 434.548 257.583C453.134 250.244 462.461 240.866 462.264 229.688C462.085 220.822 455.13 212.681 444.83 209.037C441.28 207.552 437.056 206.742 432.943 206.742C430.101 206.742 425.877 207.143 421.841 209.029C413.973 212.707 406.976 214.687 401.685 214.917C399.33 214.823 397.546 214.431 396.258 213.995C396.42 211.205 396.608 208.337 396.787 205.41L396.881 203.917C399.074 169.11 401.796 125.794 390.208 99.836C355.938 23.002 283.209 17.029 261.73 17.029L251.712 17.123C230.276 17.123 157.683 23.088 123.447 99.879C111.833 125.897 114.581 169.195 116.783 203.994C116.996 207.416 117.21 210.752 117.397 214.004C115.929 214.507 113.813 214.951 110.937 214.951C104.776 214.951 97.395 212.954 89.006 209.029C76.88 203.346 54.711 210.94 51.715 226.676C50.085 235.192 53.516 247.472 79.098 257.584C81.086 258.369 83.587 259.171 86.659 260.144C95.235 262.866 109.588 267.414 112.984 275.41C114.665 279.361 113.863 284.694 110.322 291.922C109.059 294.866 78.672 364.046 11.557 375.096C4.59401 376.239 -0.37299 382.418 0.02001 389.449C0.13101 391.403 0.58301 393.366 1.41901 395.346C7.06001 408.539 28.538 417.695 68.969 424.112C69.856 426.407 70.889 431.118 71.478 433.849C72.331 437.749 73.227 441.776 74.448 445.949C75.677 450.173 79.329 457.256 89.893 457.256C93.468 457.256 97.607 456.445 102.104 455.575C108.572 454.304 117.413 452.58 128.378 452.58C134.462 452.58 140.794 453.126 147.203 454.184C159.295 456.189 169.902 463.69 182.207 472.386C200.323 485.195 216.793 494.991 249.731 494.991C250.601 494.991 251.463 494.965 252.308 494.906C253.528 494.966 254.757 494.991 256.003 494.991C284.854 494.991 310.249 487.371 331.497 472.361C343.239 464.05 354.332 456.199 366.432 454.185C372.858 453.127 379.198 452.581 385.282 452.581C395.795 452.581 404.183 453.929 411.667 455.397C416.727 456.395 420.687 456.873 424.339 456.873C431.712 456.873 437.139 452.82 439.213 445.746C440.408 441.633 441.304 437.725 442.174 433.731C442.635 431.606 443.744 426.52 444.683 424.071C484.534 417.731 504.886 408.933 510.518 395.774C511.363 393.88 511.858 391.874 511.994 389.741C512.372 382.707 507.422 376.529 500.459 375.368Z" fill="white"/>
</g>
<defs>
<clipPath id="clip0">
<rect width="512.016" height="512.016" fill="white"/>
</clipPath>
</defs>
</svg>
